name rise49.25peak52.1432fall72.8391.mot
datacolumns 19
datarows 24
range 21.79324800000000 21.83158100000000
endheader
time	ground_force1_vx	ground_force1_vy	ground_force1_vz	ground_force1_px	ground_force1_py	ground_force1_pz	ground_force2_vx	ground_force2_vy	ground_force2_vz	ground_force2_px	ground_force2_py	ground_force2_pz	ground_torque1_x	ground_torque1_y	ground_torque1_z	ground_torque2_x	ground_torque2_y	ground_torque2_z	
21.79324800000000	8.86090000000000	716.69021299999997	41.28145100000000	0.23184000000000	0.00000000000000	0.11827500000000	0.00000000000000	0.00000000000000	0.00000000000000	0.00000000000000	0.00000000000000	0.00000000000000	0.00000000000000	17.67505500000000	0.00000000000000	0.00000000000000	0.00000000000000	0.00000000000000	
21.79492000000000	8.33986500000000	718.30912200000000	41.34994600000000	0.23093800000000	0.00000000000000	0.11830800000000	0.00000000000000	0.00000000000000	0.00000000000000	0.00000000000000	0.00000000000000	0.00000000000000	0.00000000000000	17.79415500000000	0.00000000000000	0.00000000000000	0.00000000000000	0.00000000000000	
21.79657900000000	7.80492600000000	719.91977999999995	41.42140200000000	0.23000400000000	0.00000000000000	0.11834300000000	0.00000000000000	0.00000000000000	0.00000000000000	0.00000000000000	0.00000000000000	0.00000000000000	0.00000000000000	17.91595800000000	0.00000000000000	0.00000000000000	0.00000000000000	0.00000000000000	
21.79824900000000	7.25622700000000	721.52034500000002	41.49563600000000	0.22903900000000	0.00000000000000	0.11838100000000	0.00000000000000	0.00000000000000	0.00000000000000	0.00000000000000	0.00000000000000	0.00000000000000	0.00000000000000	18.04031600000000	0.00000000000000	0.00000000000000	0.00000000000000	0.00000000000000	
21.79991300000000	6.69396000000000	723.10913500000004	41.57247200000000	0.22804300000000	0.00000000000000	0.11842100000000	0.00000000000000	0.00000000000000	0.00000000000000	0.00000000000000	0.00000000000000	0.00000000000000	0.00000000000000	18.16708500000000	0.00000000000000	0.00000000000000	0.00000000000000	0.00000000000000	
21.80158000000000	6.11837100000000	724.68462699999998	41.65174400000000	0.22701800000000	0.00000000000000	0.11846300000000	0.00000000000000	0.00000000000000	0.00000000000000	0.00000000000000	0.00000000000000	0.00000000000000	0.00000000000000	18.29612200000000	0.00000000000000	0.00000000000000	0.00000000000000	0.00000000000000	
21.80324700000000	5.52975100000000	726.24545499999999	41.73329600000000	0.22596200000000	0.00000000000000	0.11850700000000	0.00000000000000	0.00000000000000	0.00000000000000	0.00000000000000	0.00000000000000	0.00000000000000	0.00000000000000	18.42728700000000	0.00000000000000	0.00000000000000	0.00000000000000	0.00000000000000	
21.80491600000000	4.92844300000000	727.79041199999995	41.81698100000000	0.22487900000000	0.00000000000000	0.11855300000000	0.00000000000000	0.00000000000000	0.00000000000000	0.00000000000000	0.00000000000000	0.00000000000000	0.00000000000000	18.56044100000000	0.00000000000000	0.00000000000000	0.00000000000000	0.00000000000000	
21.80658100000000	4.31483300000000	729.31844500000000	41.90266400000000	0.22376900000000	0.00000000000000	0.11860100000000	0.00000000000000	0.00000000000000	0.00000000000000	0.00000000000000	0.00000000000000	0.00000000000000	0.00000000000000	18.69544700000000	0.00000000000000	0.00000000000000	0.00000000000000	0.00000000000000	
21.80824400000000	3.68935200000000	730.82865200000003	41.99021800000000	0.22263200000000	0.00000000000000	0.11865100000000	0.00000000000000	0.00000000000000	0.00000000000000	0.00000000000000	0.00000000000000	0.00000000000000	0.00000000000000	18.83217100000000	0.00000000000000	0.00000000000000	0.00000000000000	0.00000000000000	
21.80992000000000	3.05247500000000	732.32028400000002	42.07952900000000	0.22147200000000	0.00000000000000	0.11870300000000	0.00000000000000	0.00000000000000	0.00000000000000	0.00000000000000	0.00000000000000	0.00000000000000	0.00000000000000	18.97047900000000	0.00000000000000	0.00000000000000	0.00000000000000	0.00000000000000	
21.81157800000000	2.40471500000000	733.79273599999999	42.17049500000000	0.22028900000000	0.00000000000000	0.11875600000000	0.00000000000000	0.00000000000000	0.00000000000000	0.00000000000000	0.00000000000000	0.00000000000000	0.00000000000000	19.11024100000000	0.00000000000000	0.00000000000000	0.00000000000000	0.00000000000000	
21.81324500000000	1.74662400000000	735.24554599999999	42.26302300000000	0.21908400000000	0.00000000000000	0.11881100000000	0.00000000000000	0.00000000000000	0.00000000000000	0.00000000000000	0.00000000000000	0.00000000000000	0.00000000000000	19.25132700000000	0.00000000000000	0.00000000000000	0.00000000000000	0.00000000000000	
21.81491400000000	1.07878900000000	736.67838900000004	42.35703300000000	0.21786100000000	0.00000000000000	0.11886800000000	0.00000000000000	0.00000000000000	0.00000000000000	0.00000000000000	0.00000000000000	0.00000000000000	0.00000000000000	19.39361200000000	0.00000000000000	0.00000000000000	0.00000000000000	0.00000000000000	
21.81658200000000	0.40183000000000	738.09107600000004	42.45245900000000	0.21662100000000	0.00000000000000	0.11892600000000	0.00000000000000	0.00000000000000	0.00000000000000	0.00000000000000	0.00000000000000	0.00000000000000	0.00000000000000	19.53696800000000	0.00000000000000	0.00000000000000	0.00000000000000	0.00000000000000	
21.81825200000000	-0.28360400000000	739.48354099999995	42.54924400000000	0.21536500000000	0.00000000000000	0.11898600000000	0.00000000000000	0.00000000000000	0.00000000000000	0.00000000000000	0.00000000000000	0.00000000000000	0.00000000000000	19.68127400000000	0.00000000000000	0.00000000000000	0.00000000000000	0.00000000000000	
21.81991800000000	-0.97683500000000	740.85584400000005	42.64734600000000	0.21409600000000	0.00000000000000	0.11904700000000	0.00000000000000	0.00000000000000	0.00000000000000	0.00000000000000	0.00000000000000	0.00000000000000	0.00000000000000	19.82640700000000	0.00000000000000	0.00000000000000	0.00000000000000	0.00000000000000	
21.82158100000000	-1.67716400000000	742.20815900000002	42.74673200000000	0.21281600000000	0.00000000000000	0.11910900000000	0.00000000000000	0.00000000000000	0.00000000000000	0.00000000000000	0.00000000000000	0.00000000000000	0.00000000000000	19.97224500000000	0.00000000000000	0.00000000000000	0.00000000000000	0.00000000000000	
21.82325100000000	-2.38386600000000	743.54076999999995	42.84738500000000	0.21152600000000	0.00000000000000	0.11917200000000	0.00000000000000	0.00000000000000	0.00000000000000	0.00000000000000	0.00000000000000	0.00000000000000	0.00000000000000	20.11867200000000	0.00000000000000	0.00000000000000	0.00000000000000	0.00000000000000	
21.82491500000000	-3.09620200000000	744.85406399999999	42.94929800000000	0.21023000000000	0.00000000000000	0.11923500000000	0.00000000000000	0.00000000000000	0.00000000000000	0.00000000000000	0.00000000000000	0.00000000000000	0.00000000000000	20.26556800000000	0.00000000000000	0.00000000000000	0.00000000000000	0.00000000000000	
21.82658600000000	-3.81341600000000	746.14852499999995	43.05247700000000	0.20893000000000	0.00000000000000	0.11930000000000	0.00000000000000	0.00000000000000	0.00000000000000	0.00000000000000	0.00000000000000	0.00000000000000	0.00000000000000	20.41281700000000	0.00000000000000	0.00000000000000	0.00000000000000	0.00000000000000	
21.82824500000000	-4.53474100000000	747.42472399999997	43.15693800000000	0.20762700000000	0.00000000000000	0.11936500000000	0.00000000000000	0.00000000000000	0.00000000000000	0.00000000000000	0.00000000000000	0.00000000000000	0.00000000000000	20.56030400000000	0.00000000000000	0.00000000000000	0.00000000000000	0.00000000000000	
21.82991200000000	-5.25939800000000	748.68331499999999	43.26271200000000	0.20632300000000	0.00000000000000	0.11943100000000	0.00000000000000	0.00000000000000	0.00000000000000	0.00000000000000	0.00000000000000	0.00000000000000	0.00000000000000	20.70791600000000	0.00000000000000	0.00000000000000	0.00000000000000	0.00000000000000	
21.83158100000000	-5.98660700000000	749.92502700000000	43.36983700000000	0.20502200000000	0.00000000000000	0.11949700000000	0.00000000000000	0.00000000000000	0.00000000000000	0.00000000000000	0.00000000000000	0.00000000000000	0.00000000000000	20.85553800000000	0.00000000000000	0.00000000000000	0.00000000000000	0.00000000000000	
